<svg xmlns="http://www.w3.org/2000/svg" xmlns:xlink="http://www.w3.org/1999/xlink" contentStyleType="text/css" height="1441px" preserveAspectRatio="none" style="width:866px;height:1441px;background:#FFFFFF;" version="1.1" viewBox="0 0 866 1441" width="866px" zoomAndPan="magnify"><defs/><g><text fill="#000000" font-family="sans-serif" font-size="14" font-weight="bold" lengthAdjust="spacing" textLength="158.0034" x="347.3741" y="24.9659">Architecture Overview</text><!--cluster System--><g id="cluster_System"><rect fill="none" height="1139" rx="2.5" ry="2.5" style="stroke:#181818;stroke-width:1.0;" width="720" x="7" y="296.0679"/><text fill="#000000" font-family="sans-serif" font-size="14" font-weight="bold" lengthAdjust="spacing" textLength="50.7358" x="341.6321" y="313.0339">System</text></g><!--cluster Bounded Context A--><g id="cluster_Bounded Context A"><path d="M107.5,357.0679 L243.2075,357.0679 A3.75,3.75 0 0 1 245.7075,359.5679 L252.7075,382.1358 L389.5,382.1358 A2.5,2.5 0 0 1 392,384.6358 L392,867.5679 A2.5,2.5 0 0 1 389.5,870.0679 L107.5,870.0679 A2.5,2.5 0 0 1 105,867.5679 L105,359.5679 A2.5,2.5 0 0 1 107.5,357.0679 " fill="none" style="stroke:#000000;stroke-width:1.5;"/><line style="stroke:#000000;stroke-width:1.5;" x1="105" x2="252.7075" y1="382.1358" y2="382.1358"/><text fill="#000000" font-family="sans-serif" font-size="14" font-weight="bold" lengthAdjust="spacing" textLength="134.7075" x="109" y="374.0339">Bounded Context A</text></g><!--cluster ApplicationLayerA--><g id="cluster_ApplicationLayerA"><path d="M169.5,403.0679 L292.8875,403.0679 A3.75,3.75 0 0 1 295.3875,405.5679 L302.3875,428.1358 L316.5,428.1358 A2.5,2.5 0 0 1 319,430.6358 L319,493.5679 A2.5,2.5 0 0 1 316.5,496.0679 L169.5,496.0679 A2.5,2.5 0 0 1 167,493.5679 L167,405.5679 A2.5,2.5 0 0 1 169.5,403.0679 " fill="none" style="stroke:#000000;stroke-width:1.5;"/><line style="stroke:#000000;stroke-width:1.5;" x1="167" x2="302.3875" y1="428.1358" y2="428.1358"/><text fill="#000000" font-family="sans-serif" font-size="14" font-weight="bold" lengthAdjust="spacing" textLength="122.3875" x="171" y="420.0339">Application Layer</text></g><!--cluster DomainLayerA--><g id="cluster_DomainLayerA"><path d="M208.5,547.0679 L306.7996,547.0679 A3.75,3.75 0 0 1 309.2996,549.5679 L316.2996,572.1358 L353.5,572.1358 A2.5,2.5 0 0 1 356,574.6358 L356,637.5679 A2.5,2.5 0 0 1 353.5,640.0679 L208.5,640.0679 A2.5,2.5 0 0 1 206,637.5679 L206,549.5679 A2.5,2.5 0 0 1 208.5,547.0679 " fill="none" style="stroke:#000000;stroke-width:1.5;"/><line style="stroke:#000000;stroke-width:1.5;" x1="206" x2="316.2996" y1="572.1358" y2="572.1358"/><text fill="#000000" font-family="sans-serif" font-size="14" font-weight="bold" lengthAdjust="spacing" textLength="97.2996" x="210" y="564.0339">Domain Layer</text></g><!--cluster InfrastructureLayerA--><g id="cluster_InfrastructureLayerA"><path d="M139.5,729.0679 L283.6635,729.0679 A3.75,3.75 0 0 1 286.1635,731.5679 L293.1635,754.1358 L357.5,754.1358 A2.5,2.5 0 0 1 360,756.6358 L360,835.5679 A2.5,2.5 0 0 1 357.5,838.0679 L139.5,838.0679 A2.5,2.5 0 0 1 137,835.5679 L137,731.5679 A2.5,2.5 0 0 1 139.5,729.0679 " fill="none" style="stroke:#000000;stroke-width:1.5;"/><line style="stroke:#000000;stroke-width:1.5;" x1="137" x2="293.1635" y1="754.1358" y2="754.1358"/><text fill="#000000" font-family="sans-serif" font-size="14" font-weight="bold" lengthAdjust="spacing" textLength="143.1635" x="141" y="746.0339">Infrastructure Layer</text></g><!--cluster Bounded Context B--><g id="cluster_Bounded Context B"><path d="M418.5,691.0679 L553.9555,691.0679 A3.75,3.75 0 0 1 556.4555,693.5679 L563.4555,716.1358 L700.5,716.1358 A2.5,2.5 0 0 1 703,718.6358 L703,1211.5679 A2.5,2.5 0 0 1 700.5,1214.0679 L418.5,1214.0679 A2.5,2.5 0 0 1 416,1211.5679 L416,693.5679 A2.5,2.5 0 0 1 418.5,691.0679 " fill="none" style="stroke:#000000;stroke-width:1.5;"/><line style="stroke:#000000;stroke-width:1.5;" x1="416" x2="563.4555" y1="716.1358" y2="716.1358"/><text fill="#000000" font-family="sans-serif" font-size="14" font-weight="bold" lengthAdjust="spacing" textLength="134.4555" x="420" y="708.0339">Bounded Context B</text></g><!--cluster ApplicationLayerB--><g id="cluster_ApplicationLayerB"><path d="M442.5,737.0679 L565.8875,737.0679 A3.75,3.75 0 0 1 568.3875,739.5679 L575.3875,762.1358 L589.5,762.1358 A2.5,2.5 0 0 1 592,764.6358 L592,827.5679 A2.5,2.5 0 0 1 589.5,830.0679 L442.5,830.0679 A2.5,2.5 0 0 1 440,827.5679 L440,739.5679 A2.5,2.5 0 0 1 442.5,737.0679 " fill="none" style="stroke:#000000;stroke-width:1.5;"/><line style="stroke:#000000;stroke-width:1.5;" x1="440" x2="575.3875" y1="762.1358" y2="762.1358"/><text fill="#000000" font-family="sans-serif" font-size="14" font-weight="bold" lengthAdjust="spacing" textLength="122.3875" x="444" y="754.0339">Application Layer</text></g><!--cluster DomainLayerB--><g id="cluster_DomainLayerB"><path d="M519.5,921.0679 L617.7996,921.0679 A3.75,3.75 0 0 1 620.2996,923.5679 L627.2996,946.1358 L664.5,946.1358 A2.5,2.5 0 0 1 667,948.6358 L667,1011.5679 A2.5,2.5 0 0 1 664.5,1014.0679 L519.5,1014.0679 A2.5,2.5 0 0 1 517,1011.5679 L517,923.5679 A2.5,2.5 0 0 1 519.5,921.0679 " fill="none" style="stroke:#000000;stroke-width:1.5;"/><line style="stroke:#000000;stroke-width:1.5;" x1="517" x2="627.2996" y1="946.1358" y2="946.1358"/><text fill="#000000" font-family="sans-serif" font-size="14" font-weight="bold" lengthAdjust="spacing" textLength="97.2996" x="521" y="938.0339">Domain Layer</text></g><!--cluster InfrastructureLayerB--><g id="cluster_InfrastructureLayerB"><path d="M450.5,1073.0679 L594.6635,1073.0679 A3.75,3.75 0 0 1 597.1635,1075.5679 L604.1635,1098.1358 L668.5,1098.1358 A2.5,2.5 0 0 1 671,1100.6358 L671,1179.5679 A2.5,2.5 0 0 1 668.5,1182.0679 L450.5,1182.0679 A2.5,2.5 0 0 1 448,1179.5679 L448,1075.5679 A2.5,2.5 0 0 1 450.5,1073.0679 " fill="none" style="stroke:#000000;stroke-width:1.5;"/><line style="stroke:#000000;stroke-width:1.5;" x1="448" x2="604.1635" y1="1098.1358" y2="1098.1358"/><text fill="#000000" font-family="sans-serif" font-size="14" font-weight="bold" lengthAdjust="spacing" textLength="143.1635" x="452" y="1090.0339">Infrastructure Layer</text></g><!--cluster Database--><g id="cluster_Database"><path d="M159,1275.0679 C159,1265.0679 277.5,1265.0679 277.5,1265.0679 C277.5,1265.0679 396,1265.0679 396,1275.0679 L396,1401.0679 C396,1411.0679 277.5,1411.0679 277.5,1411.0679 C277.5,1411.0679 159,1411.0679 159,1401.0679 L159,1275.0679 " fill="none" style="stroke:#181818;stroke-width:1.0;"/><path d="M159,1275.0679 C159,1285.0679 277.5,1285.0679 277.5,1285.0679 C277.5,1285.0679 396,1285.0679 396,1275.0679 " fill="none" style="stroke:#181818;stroke-width:1.0;"/><text fill="#000000" font-family="sans-serif" font-size="14" font-weight="bold" lengthAdjust="spacing" textLength="65.8977" x="244.5511" y="1302.0339">Database</text></g><text fill="#000000" font-family="sans-serif" font-size="14" lengthAdjust="spacing" textLength="3.64" x="241.18" y="273.9659">&#160;</text><rect fill="#F1F1F1" height="12" style="stroke:#181818;stroke-width:1.5;" width="12" x="237" y="290.0679"/><!--entity ApiControllersA--><g id="elem_ApiControllersA"><rect fill="#F1F1F1" height="39.0679" rx="2.5" ry="2.5" style="stroke:#181818;stroke-width:0.5;" width="118.6856" x="183.5" y="441.0679"/><text fill="#000000" font-family="sans-serif" font-size="14" lengthAdjust="spacing" textLength="98.6856" x="193.5" y="466.0339">API Controllers</text></g><!--entity DomainModelA--><g id="elem_DomainModelA"><rect fill="#F1F1F1" height="39.0679" rx="2.5" ry="2.5" style="stroke:#181818;stroke-width:0.5;" width="116.8236" x="222.5" y="585.0679"/><text fill="#000000" font-family="sans-serif" font-size="14" lengthAdjust="spacing" textLength="96.8236" x="232.5" y="610.0339">Domain Model</text></g><!--entity AnticorruptionLayerA--><g id="elem_AnticorruptionLayerA"><rect fill="#F1F1F1" height="39.0679" rx="2.5" ry="2.5" style="stroke:#181818;stroke-width:0.5;" width="155.7155" x="180" y="775.0679"/><text fill="#000000" font-family="sans-serif" font-size="14" lengthAdjust="spacing" textLength="135.7155" x="190" y="800.0339">Anticorruption Layer</text></g><!--entity ApiControllersB--><g id="elem_ApiControllersB"><rect fill="#F1F1F1" height="39.0679" rx="2.5" ry="2.5" style="stroke:#181818;stroke-width:0.5;" width="118.6856" x="456.5" y="775.0679"/><text fill="#000000" font-family="sans-serif" font-size="14" lengthAdjust="spacing" textLength="98.6856" x="466.5" y="800.0339">API Controllers</text></g><!--entity DomainModelB--><g id="elem_DomainModelB"><rect fill="#F1F1F1" height="39.0679" rx="2.5" ry="2.5" style="stroke:#181818;stroke-width:0.5;" width="116.8236" x="533.5" y="959.0679"/><text fill="#000000" font-family="sans-serif" font-size="14" lengthAdjust="spacing" textLength="96.8236" x="543.5" y="984.0339">Domain Model</text></g><!--entity AnticorruptionLayerB--><g id="elem_AnticorruptionLayerB"><rect fill="#F1F1F1" height="39.0679" rx="2.5" ry="2.5" style="stroke:#181818;stroke-width:0.5;" width="155.7155" x="491" y="1119.0679"/><text fill="#000000" font-family="sans-serif" font-size="14" lengthAdjust="spacing" textLength="135.7155" x="501" y="1144.0339">Anticorruption Layer</text></g><!--entity SchemaA--><g id="elem_SchemaA"><path d="M175,1320.5679 L175,1392.7717 A2.5,2.5 0 0 0 177.5,1395.2717 L256.9837,1395.2717 A2.5,2.5 0 0 0 259.4837,1392.7717 L259.4837,1328.0679 L249.4837,1318.0679 L177.5,1318.0679 A2.5,2.5 0 0 0 175,1320.5679 " fill="#F1F1F1" style="stroke:#181818;stroke-width:0.5;"/><path d="M249.4837,1318.0679 L249.4837,1325.5679 A2.5,2.5 0 0 0 251.9837,1328.0679 L259.4837,1328.0679 " fill="#F1F1F1" style="stroke:#181818;stroke-width:0.5;"/><text fill="#000000" font-family="sans-serif" font-size="14" lengthAdjust="spacing" textLength="64.4837" x="185" y="1343.0339">Schema A</text><text fill="#000000" font-family="sans-serif" font-size="14" lengthAdjust="spacing" textLength="3.64" x="185" y="1362.1018">&#160;</text><text fill="#000000" font-family="sans-serif" font-size="14" lengthAdjust="spacing" textLength="3.64" x="185" y="1381.1697">&#160;</text></g><!--entity SchemaB--><g id="elem_SchemaB"><path d="M294.5,1320.5679 L294.5,1392.7717 A2.5,2.5 0 0 0 297,1395.2717 L376.6377,1395.2717 A2.5,2.5 0 0 0 379.1377,1392.7717 L379.1377,1328.0679 L369.1377,1318.0679 L297,1318.0679 A2.5,2.5 0 0 0 294.5,1320.5679 " fill="#F1F1F1" style="stroke:#181818;stroke-width:0.5;"/><path d="M369.1377,1318.0679 L369.1377,1325.5679 A2.5,2.5 0 0 0 371.6377,1328.0679 L379.1377,1328.0679 " fill="#F1F1F1" style="stroke:#181818;stroke-width:0.5;"/><text fill="#000000" font-family="sans-serif" font-size="14" lengthAdjust="spacing" textLength="64.6377" x="304.5" y="1343.0339">Schema B</text><text fill="#000000" font-family="sans-serif" font-size="14" lengthAdjust="spacing" textLength="3.64" x="304.5" y="1362.1018">&#160;</text><text fill="#000000" font-family="sans-serif" font-size="14" lengthAdjust="spacing" textLength="3.64" x="304.5" y="1381.1697">&#160;</text></g><!--entity Client--><g id="elem_Client"><rect fill="#F1F1F1" height="39.0679" rx="2.5" ry="2.5" style="stroke:#181818;stroke-width:0.5;" width="57.6738" x="214" y="47.0679"/><text fill="#000000" font-family="sans-serif" font-size="14" lengthAdjust="spacing" textLength="37.6738" x="224" y="72.0339">Client</text></g><!--entity RESTAPI--><g id="elem_RESTAPI"><ellipse cx="243" cy="197.0679" fill="#F1F1F1" rx="8" ry="8" style="stroke:#181818;stroke-width:0.5;"/><text fill="#000000" font-family="sans-serif" font-size="14" lengthAdjust="spacing" textLength="74.8437" x="205.5781" y="229.0339">RESTful API</text></g><!--entity ExternalSystem--><g id="elem_ExternalSystem"><rect fill="#F1F1F1" height="39.0679" rx="2.5" ry="2.5" style="stroke:#181818;stroke-width:0.5;" width="125.2516" x="735.5" y="1337.0679"/><text fill="#000000" font-family="sans-serif" font-size="14" lengthAdjust="spacing" textLength="105.2516" x="745.5" y="1362.0339">External System</text></g><!--link port to ApiControllersA--><g id="link_port_ApiControllersA"><path d="M243,302.1079 C243,323.0579 243,403.8379 243,440.8479 " fill="none" id="port-ApiControllersA" style="stroke:#181818;stroke-width:1.0;"/></g><!--link ApiControllersA to DomainModelA--><g id="link_ApiControllersA_DomainModelA"><path d="M239.7,480.1679 C237.84,494.3479 236.66,514.2379 241,531.0679 C246.09,550.8379 254.484,566.0042 263.944,580.0242 " fill="none" id="ApiControllersA-to-DomainModelA" style="stroke:#181818;stroke-width:1.0;stroke-dasharray:7.0,7.0;"/><polygon fill="#181818" points="267.3,584.9979,265.5818,575.3001,264.5033,580.8532,258.9502,579.7747,267.3,584.9979" style="stroke:#181818;stroke-width:1.0;"/><text fill="#000000" font-family="sans-serif" font-size="13" lengthAdjust="spacing" textLength="29.289" x="242" y="526.9649">Uses</text></g><!--link ApiControllersA to InfrastructureLayerA--><g id="link_ApiControllersA_InfrastructureLayerA"><path d="M220.72,480.1779 C205.15,494.5479 185.36,515.8579 175,539.0679 C152.16,590.2629 144.535,652.7154 142.6812,702.9417 C142.4495,709.2199 142.308,715.3072 142.2382,721.1575 C142.2207,722.6201 142.2078,724.0679 142.199,725.5002 C142.1946,726.2163 142.1913,726.9285 142.1889,727.6368 C142.1878,727.991 142.1981,722.3441 142.1975,722.6963 " fill="none" id="ApiControllersA-to-InfrastructureLayerA" style="stroke:#181818;stroke-width:1.0;stroke-dasharray:7.0,7.0;"/><polygon fill="#181818" points="142.1862,728.6962,146.2031,719.7038,142.1956,723.6962,138.2031,719.6887,142.1862,728.6962" style="stroke:#181818;stroke-width:1.0;"/><text fill="#000000" font-family="sans-serif" font-size="13" lengthAdjust="spacing" textLength="29.289" x="176" y="609.9649">Uses</text></g><!--reverse link DomainModelA to InfrastructureLayerA--><g id="link_DomainModelA_InfrastructureLayerA"><path d="M229.304,632.2347 C213.964,639.9847 211.79,640.7379 195,648.0679 C185.85,652.0579 181.03,648.9679 174,656.0679 C164.99,665.1579 167.32,670.7079 164,683.0679 C160.8175,694.9104 158.0506,707.616 155.6875,720.0428 C155.3921,721.5961 155.103,723.1451 154.8202,724.6875 C154.6788,725.4587 154.539,726.2282 154.4007,726.9958 C154.3316,727.3797 154.2629,727.763 154.1945,728.1458 C154.1604,728.3372 154.1263,728.5285 154.0923,728.7196 " fill="none" id="DomainModelA-backto-InfrastructureLayerA" style="stroke:#181818;stroke-width:1.0;stroke-dasharray:7.0,7.0;"/><polygon fill="none" points="245.37,624.1179,226.5984,626.8794,232.0096,637.5901,245.37,624.1179" style="stroke:#181818;stroke-width:1.0;"/><text fill="#000000" font-family="sans-serif" font-size="13" lengthAdjust="spacing" textLength="73.6841" x="175" y="670.9649">Implements</text></g><!--link InfrastructureLayerA to SchemaA--><g id="link_InfrastructureLayerA_SchemaA"><path d="M150.5668,838.8853 C150.6994,839.9168 150.8341,840.964 150.9707,842.0265 C151.2439,844.1515 151.525,846.3378 151.8137,848.5829 C152.3911,853.0731 152.9987,857.7988 153.6341,862.7399 C158.7169,902.2695 165.5738,955.596 172.9025,1012.5942 C187.56,1126.5904 203.3402,1249.3219 211.3552,1311.6869 " fill="none" id="InfrastructureLayerA-to-SchemaA" style="stroke:#181818;stroke-width:1.0;stroke-dasharray:7.0,7.0;"/><polygon fill="#181818" points="212.12,1317.6379,214.9401,1308.2015,211.4827,1312.6787,207.0054,1309.2212,212.12,1317.6379" style="stroke:#181818;stroke-width:1.0;"/><text fill="#000000" font-family="sans-serif" font-size="13" lengthAdjust="spacing" textLength="29.289" x="177" y="1044.9649">Uses</text></g><!--link AnticorruptionLayerA to ApiControllersB--><g id="link_AnticorruptionLayerA_ApiControllersB"><path d="M336.11,794.5679 C374.67,794.5679 414.46,794.5679 450.19,794.5679 " fill="none" id="AnticorruptionLayerA-to-ApiControllersB" style="stroke:#181818;stroke-width:1.0;stroke-dasharray:7.0,7.0;"/><polygon fill="#181818" points="456.19,794.5679,447.19,790.5679,451.19,794.5679,447.19,798.5679,456.19,794.5679" style="stroke:#181818;stroke-width:1.0;"/><text fill="#000000" font-family="sans-serif" font-size="13" lengthAdjust="spacing" textLength="29.289" x="381.75" y="787.4649">Uses</text></g><!--link port to ApiControllersB--><g id="link_port_ApiControllersB"><path d="M249.41,299.1979 C263.73,304.2579 298.7,318.3079 319,341.0679 C442.75,479.8279 498.26,708.4779 512.29,774.9279 " fill="none" id="port-ApiControllersB" style="stroke:#181818;stroke-width:1.0;"/></g><!--link ApiControllersB to DomainModelB--><g id="link_ApiControllersB_DomainModelB"><path d="M523.85,814.3579 C538.45,849.3279 567.3179,918.4513 581.8879,953.3413 " fill="none" id="ApiControllersB-to-DomainModelB" style="stroke:#181818;stroke-width:1.0;stroke-dasharray:7.0,7.0;"/><polygon fill="#181818" points="584.2,958.8779,584.423,949.0316,582.2733,954.2641,577.0408,952.1144,584.2,958.8779" style="stroke:#181818;stroke-width:1.0;"/><text fill="#000000" font-family="sans-serif" font-size="13" lengthAdjust="spacing" textLength="29.289" x="561" y="900.9649">Uses</text></g><!--link ApiControllersB to InfrastructureLayerB--><g id="link_ApiControllersB_InfrastructureLayerB"><path d="M510.54,814.1379 C503.93,837.1679 492.85,877.7279 486,913.0679 C476.575,961.7079 469.16,1016.8529 464.06,1060.3167 C463.7412,1063.0332 463.4315,1065.704 463.131,1068.3248 C462.9807,1069.6352 463.5088,1064.9713 463.3631,1066.2561 " fill="none" id="ApiControllersB-to-InfrastructureLayerB" style="stroke:#181818;stroke-width:1.0;stroke-dasharray:7.0,7.0;"/><polygon fill="#181818" points="462.6869,1072.2179,467.6757,1063.726,463.2504,1067.2497,459.7267,1062.8244,462.6869,1072.2179" style="stroke:#181818;stroke-width:1.0;"/><text fill="#000000" font-family="sans-serif" font-size="13" lengthAdjust="spacing" textLength="29.289" x="487" y="983.9649">Uses</text></g><!--reverse link DomainModelB to InfrastructureLayerB--><g id="link_DomainModelB_InfrastructureLayerB"><path d="M532.8967,1006.3176 C507.6867,1019.2976 493.32,1030.7879 475,1057.0679 C472.4538,1060.7192 470.2456,1064.6665 468.3311,1068.7847 C467.8524,1069.8142 467.3921,1070.8545 466.9495,1071.9034 C466.8388,1072.1656 466.7293,1072.4284 466.6208,1072.6917 " fill="none" id="DomainModelB-backto-InfrastructureLayerB" style="stroke:#181818;stroke-width:1.0;stroke-dasharray:7.0,7.0;"/><polygon fill="none" points="548.9,998.0779,530.1501,1000.9832,535.6432,1011.6521,548.9,998.0779" style="stroke:#181818;stroke-width:1.0;"/><text fill="#000000" font-family="sans-serif" font-size="13" lengthAdjust="spacing" textLength="73.6841" x="498" y="1044.9649">Implements</text></g><!--link InfrastructureLayerB to SchemaB--><g id="link_InfrastructureLayerB_SchemaB"><path d="M447.9405,1154.1915 C447.8511,1154.3537 447.7612,1154.517 447.6706,1154.6814 C447.3081,1155.3392 446.9356,1156.0155 446.5531,1156.7096 C445.7883,1158.0977 444.9842,1159.5573 444.1434,1161.0832 C437.4175,1173.291 428.3488,1189.7517 418.32,1207.9554 C398.2625,1244.3629 377.2597,1282.4874 360.5847,1312.7624 " fill="none" id="InfrastructureLayerB-to-SchemaB" style="stroke:#181818;stroke-width:1.0;stroke-dasharray:7.0,7.0;"/><polygon fill="#181818" points="357.69,1318.0179,365.5357,1312.0644,360.1022,1313.6383,358.5283,1308.2048,357.69,1318.0179" style="stroke:#181818;stroke-width:1.0;"/><text fill="#000000" font-family="sans-serif" font-size="13" lengthAdjust="spacing" textLength="29.289" x="404" y="1244.9649">Uses</text></g><!--link AnticorruptionLayerB to ExternalSystem--><g id="link_AnticorruptionLayerB_ExternalSystem"><path d="M588.92,1158.3579 C632.34,1199.3079 730.6955,1292.0808 773.9255,1332.8608 " fill="none" id="AnticorruptionLayerB-to-ExternalSystem" style="stroke:#181818;stroke-width:1.0;stroke-dasharray:7.0,7.0;"/><polygon fill="#181818" points="778.29,1336.9779,774.488,1327.8925,774.6529,1333.5469,768.9985,1333.7119,778.29,1336.9779" style="stroke:#181818;stroke-width:1.0;"/><text fill="#000000" font-family="sans-serif" font-size="13" lengthAdjust="spacing" textLength="29.289" x="684" y="1244.9649">Uses</text></g><!--link Client to RESTAPI--><g id="link_Client_RESTAPI"><path d="M243,86.2579 C243,114.6479 243,161.5279 243,181.8279 " fill="none" id="Client-to-RESTAPI" style="stroke:#181818;stroke-width:1.0;stroke-dasharray:7.0,7.0;"/><polygon fill="#181818" points="243,187.8279,247,178.8279,243,182.8279,239,178.8279,243,187.8279" style="stroke:#181818;stroke-width:1.0;"/><text fill="#000000" font-family="sans-serif" font-size="13" lengthAdjust="spacing" textLength="29.289" x="244" y="130.9649">Uses</text></g><!--link RESTAPI to port--><g id="link_RESTAPI_port"><path d="M243,206.3379 C243,225.7679 243,273.8679 243,289.8279 " fill="none" id="RESTAPI-port" style="stroke:#181818;stroke-width:1.0;"/></g><!--SRC=[fPNDRkCW58NtFCKjcwwI1vX59R0PJQGchc9NcagLHjGXBHeRMnXtMitqtOTW4lz7_TcPS-_Xm6UmBtPYBvM0-2vEs1gqI0rNZvb05xv0ezjDoC9VGRH9sCy4Ifx-vezj_PhSiUr83QBrJRHXcsHYnZZumTO4zj9go4YJ2I0wVPB6TjPQGFGizBCKVn1gPmaoAPH1Axk6xNSICC1R5YVxEWDoiyB0ApYCxJFo6y7inGYjU0RnQsL4xdgEMYEXOsypXBy8Hhl5jAZLJkmWA9GHBmO8TdtWzur9MMOovKOM2gxvgz0kgACwaNWJTC1WkrethIwoJEZA6sL78ixqriqBYvpBRbGZpATumxhOYQnZSEE9-LTghtbbTDsyYpQdNpYpAsLaMcXTbqCclK8pmId_3Rq7FlqKVFev-FHZyEb7uTElmQTVXK_xyCj26y3WkW_FLWf9GYY96OJSy0TU2H_fBp2EqoUHSo3twbuvNoEGgIOwQA8kroQZIxixVrNbuO6dXoLMQ70LO54lceKD2ylbLUzGmpV0jvMeyBZpQleOdmoJrMMz_3TEMELb9dBxKPgrsJGFfBEYYKi0IsrR1uUljQ1XPGO47OAWSo3e30Xw5WGTWw3l044x8EXP44rd_nlTmN1vAlNFIVDhS5x_3sXDHs7XYVq7]--></g></svg>