<svg xmlns="http://www.w3.org/2000/svg" xmlns:xlink="http://www.w3.org/1999/xlink" contentStyleType="text/css" height="1172px" preserveAspectRatio="none" style="width:1913px;height:1172px;background:#FFFFFF;" version="1.1" viewBox="0 0 1913 1172" width="1913px" zoomAndPan="magnify"><defs><filter height="300%" id="fa9orslsomx3u" width="300%" x="-1" y="-1"><feGaussianBlur result="blurOut" stdDeviation="2.0"/><feColorMatrix in="blurOut" result="blurOut2" type="matrix" values="0 0 0 0 0 0 0 0 0 0 0 0 0 0 0 0 0 0 .4 0"/><feOffset dx="4.0" dy="4.0" in="blurOut2" result="blurOut3"/><feBlend in="SourceGraphic" in2="blurOut3" mode="normal"/></filter></defs><g><text fill="#000000" font-family="sans-serif" font-size="14" font-weight="bold" lengthAdjust="spacing" textLength="150.8074" x="874.1363" y="24.9659">Body Leasing Domain</text><!--cluster Project Management--><g id="cluster_Project Management"><rect fill="none" filter="url(#fa9orslsomx3u)" height="355.5" rx="2.5" ry="2.5" style="stroke:#000000;stroke-width:1.5;" width="163" x="1533.08" y="776.5679"/><text fill="#000000" font-family="sans-serif" font-size="14" font-style="italic" lengthAdjust="spacing" textLength="119.9376" x="1554.6112" y="793.5339">&#171;Bounded Context&#187;</text><text fill="#000000" font-family="sans-serif" font-size="14" font-weight="bold" lengthAdjust="spacing" textLength="147.0134" x="1541.0733" y="812.6018">Project Management</text></g><!--cluster Customer Management--><g id="cluster_Customer Management"><rect fill="none" filter="url(#fa9orslsomx3u)" height="355.5" rx="2.5" ry="2.5" style="stroke:#000000;stroke-width:1.5;" width="181" x="1720.08" y="776.5679"/><text fill="#000000" font-family="sans-serif" font-size="14" font-style="italic" lengthAdjust="spacing" textLength="119.9376" x="1750.6112" y="793.5339">&#171;Bounded Context&#187;</text><text fill="#000000" font-family="sans-serif" font-size="14" font-weight="bold" lengthAdjust="spacing" textLength="165.5774" x="1727.7913" y="812.6018">Customer Management</text></g><!--cluster Freelancer Management--><g id="cluster_Freelancer Management"><rect fill="none" filter="url(#fa9orslsomx3u)" height="932" rx="2.5" ry="2.5" style="stroke:#000000;stroke-width:1.5;" width="1235" x="274.08" y="47.0679"/><text fill="#000000" font-family="sans-serif" font-size="14" font-style="italic" lengthAdjust="spacing" textLength="119.9376" x="831.6112" y="64.0339">&#171;Bounded Context&#187;</text><text fill="#000000" font-family="sans-serif" font-size="14" font-weight="bold" lengthAdjust="spacing" textLength="171.7233" x="805.7183" y="83.1018">Freelancer Management</text></g><!--class Project--><g id="elem_Project"><rect codeLine="14" fill="#F1F1F1" filter="url(#fa9orslsomx3u)" height="72.4799" id="Project" rx="2.5" ry="2.5" style="stroke:#181818;stroke-width:0.5;" width="94.0526" x="1549.08" y="833.5679"/><text fill="#000000" font-family="sans-serif" font-size="12" font-style="italic" lengthAdjust="spacing" textLength="92.0526" x="1550.08" y="851.396">&#171;aggregate root&#187;</text><text fill="#000000" font-family="sans-serif" font-size="14" lengthAdjust="spacing" textLength="46.0038" x="1573.1044" y="869.878">Project</text><line style="stroke:#181818;stroke-width:0.5;" x1="1550.08" x2="1642.1326" y1="878.9799" y2="878.9799"/><text fill="#000000" font-family="sans-serif" font-size="14" lengthAdjust="spacing" textLength="37.4919" x="1555.08" y="897.9459">name</text></g><!--class ProjectId--><g id="elem_ProjectId"><rect codeLine="18" fill="#F1F1F1" filter="url(#fa9orslsomx3u)" height="72.4799" id="ProjectId" rx="2.5" ry="2.5" style="stroke:#181818;stroke-width:0.5;" width="77.2285" x="1549.58" y="1044.0679"/><text fill="#000000" font-family="sans-serif" font-size="12" font-style="italic" lengthAdjust="spacing" textLength="75.2285" x="1550.58" y="1061.896">&#171;value object&#187;</text><text fill="#000000" font-family="sans-serif" font-size="14" lengthAdjust="spacing" textLength="59.3598" x="1558.5144" y="1080.378">ProjectId</text><line style="stroke:#181818;stroke-width:0.5;" x1="1550.58" x2="1625.8085" y1="1089.4799" y2="1089.4799"/><text fill="#000000" font-family="sans-serif" font-size="14" lengthAdjust="spacing" textLength="35.1259" x="1555.58" y="1108.4459">value</text></g><!--class Customer--><g id="elem_Customer"><rect codeLine="26" fill="#F1F1F1" filter="url(#fa9orslsomx3u)" height="72.4799" id="Customer" rx="2.5" ry="2.5" style="stroke:#181818;stroke-width:0.5;" width="94.0526" x="1736.08" y="833.5679"/><text fill="#000000" font-family="sans-serif" font-size="12" font-style="italic" lengthAdjust="spacing" textLength="92.0526" x="1737.08" y="851.396">&#171;aggregate root&#187;</text><text fill="#000000" font-family="sans-serif" font-size="14" lengthAdjust="spacing" textLength="64.4978" x="1750.8574" y="869.878">Customer</text><line style="stroke:#181818;stroke-width:0.5;" x1="1737.08" x2="1829.1326" y1="878.9799" y2="878.9799"/><text fill="#000000" font-family="sans-serif" font-size="14" lengthAdjust="spacing" textLength="37.4919" x="1742.08" y="897.9459">name</text></g><!--class CustomerId--><g id="elem_CustomerId"><rect codeLine="30" fill="#F1F1F1" filter="url(#fa9orslsomx3u)" height="72.4799" id="CustomerId" rx="2.5" ry="2.5" style="stroke:#181818;stroke-width:0.5;" width="83.8537" x="1738.08" y="1044.0679"/><text fill="#000000" font-family="sans-serif" font-size="12" font-style="italic" lengthAdjust="spacing" textLength="75.2285" x="1742.3926" y="1061.896">&#171;value object&#187;</text><text fill="#000000" font-family="sans-serif" font-size="14" lengthAdjust="spacing" textLength="77.8537" x="1741.08" y="1080.378">CustomerId</text><line style="stroke:#181818;stroke-width:0.5;" x1="1739.08" x2="1820.9337" y1="1089.4799" y2="1089.4799"/><text fill="#000000" font-family="sans-serif" font-size="14" lengthAdjust="spacing" textLength="35.1259" x="1744.08" y="1108.4459">value</text></g><!--class Freelancer--><g id="elem_Freelancer"><rect codeLine="38" fill="#F1F1F1" filter="url(#fa9orslsomx3u)" height="194.8874" id="Freelancer" rx="2.5" ry="2.5" style="stroke:#181818;stroke-width:0.5;" width="241.4591" x="895.58" y="417.5679"/><text fill="#000000" font-family="sans-serif" font-size="12" font-style="italic" lengthAdjust="spacing" textLength="92.0526" x="970.2833" y="435.396">&#171;aggregate root&#187;</text><text fill="#000000" font-family="sans-serif" font-size="14" lengthAdjust="spacing" textLength="69.3557" x="981.6317" y="453.878">Freelancer</text><line style="stroke:#181818;stroke-width:0.5;" x1="896.58" x2="1136.0391" y1="462.9799" y2="462.9799"/><rect fill="none" height="6" style="stroke:#C82930;stroke-width:1.0;" width="6" x="903.58" y="475.0139"/><text fill="#000000" font-family="sans-serif" font-size="14" lengthAdjust="spacing" textLength="72.6457" x="915.58" y="481.9459">nickNames</text><line style="stroke:#181818;stroke-width:1.0;" x1="896.58" x2="1136.0391" y1="490.0479" y2="490.0479"/><ellipse cx="906.58" cy="505.0818" fill="#84BE84" rx="3" ry="3" style="stroke:#038048;stroke-width:1.0;"/><text fill="#000000" font-family="sans-serif" font-size="14" lengthAdjust="spacing" textLength="150.6394" x="915.58" y="509.0138">movedTo(newAddress)</text><ellipse cx="906.58" cy="524.1497" fill="#84BE84" rx="3" ry="3" style="stroke:#038048;stroke-width:1.0;"/><text fill="#000000" font-family="sans-serif" font-size="14" lengthAdjust="spacing" textLength="99.4136" x="915.58" y="528.0817">add(nickName)</text><ellipse cx="906.58" cy="543.2177" fill="#84BE84" rx="3" ry="3" style="stroke:#038048;stroke-width:1.0;"/><text fill="#000000" font-family="sans-serif" font-size="14" lengthAdjust="spacing" textLength="190.2872" x="915.58" y="547.1496">add(communicationChannel)</text><ellipse cx="906.58" cy="562.2856" fill="#84BE84" rx="3" ry="3" style="stroke:#038048;stroke-width:1.0;"/><text fill="#000000" font-family="sans-serif" font-size="14" lengthAdjust="spacing" textLength="124.5855" x="915.58" y="566.2176">remove(nickName)</text><ellipse cx="906.58" cy="581.3535" fill="#84BE84" rx="3" ry="3" style="stroke:#038048;stroke-width:1.0;"/><text fill="#000000" font-family="sans-serif" font-size="14" lengthAdjust="spacing" textLength="215.4591" x="915.58" y="585.2855">remove(communicationChannel)</text><ellipse cx="906.58" cy="600.4214" fill="#84BE84" rx="3" ry="3" style="stroke:#038048;stroke-width:1.0;"/><text fill="#000000" font-family="sans-serif" font-size="14" lengthAdjust="spacing" textLength="134.7635" x="915.58" y="604.3534">update(hourlyWage)</text></g><!--class FreelancerId--><g id="elem_FreelancerId"><rect codeLine="49" fill="#F1F1F1" filter="url(#fa9orslsomx3u)" height="72.4799" id="FreelancerId" rx="2.5" ry="2.5" style="stroke:#181818;stroke-width:0.5;" width="88.7117" x="715.58" y="833.5679"/><text fill="#000000" font-family="sans-serif" font-size="12" font-style="italic" lengthAdjust="spacing" textLength="75.2285" x="722.3216" y="851.396">&#171;value object&#187;</text><text fill="#000000" font-family="sans-serif" font-size="14" lengthAdjust="spacing" textLength="82.7117" x="718.58" y="869.878">FreelancerId</text><line style="stroke:#181818;stroke-width:0.5;" x1="716.58" x2="803.2917" y1="878.9799" y2="878.9799"/><text fill="#000000" font-family="sans-serif" font-size="14" lengthAdjust="spacing" textLength="35.1259" x="721.58" y="897.9459">value</text></g><!--class PersonName--><g id="elem_PersonName"><rect codeLine="53" fill="#F1F1F1" filter="url(#fa9orslsomx3u)" height="110.6158" id="PersonName" rx="2.5" ry="2.5" style="stroke:#181818;stroke-width:0.5;" width="91.4557" x="1007.58" y="814.0679"/><text fill="#000000" font-family="sans-serif" font-size="12" font-style="italic" lengthAdjust="spacing" textLength="75.2285" x="1015.6936" y="831.896">&#171;value object&#187;</text><text fill="#000000" font-family="sans-serif" font-size="14" lengthAdjust="spacing" textLength="85.4557" x="1010.58" y="850.378">PersonName</text><line style="stroke:#181818;stroke-width:0.5;" x1="1008.58" x2="1098.0357" y1="859.4799" y2="859.4799"/><text fill="#000000" font-family="sans-serif" font-size="14" lengthAdjust="spacing" textLength="25.9699" x="1013.58" y="878.4459">first</text><text fill="#000000" font-family="sans-serif" font-size="14" lengthAdjust="spacing" textLength="23.2259" x="1013.58" y="897.5138">last</text><text fill="#000000" font-family="sans-serif" font-size="14" lengthAdjust="spacing" textLength="45.4298" x="1013.58" y="916.5817">middle</text></g><!--class Address--><g id="elem_Address"><rect codeLine="59" fill="#F1F1F1" filter="url(#fa9orslsomx3u)" height="167.8195" id="Address" rx="2.5" ry="2.5" style="stroke:#181818;stroke-width:0.5;" width="66.1378" x="1134.08" y="785.5679"/><text fill="#000000" font-family="sans-serif" font-size="12" font-style="italic" lengthAdjust="spacing" textLength="41.0523" x="1146.6228" y="803.396">&#171;entity&#187;</text><text fill="#000000" font-family="sans-serif" font-size="14" lengthAdjust="spacing" textLength="53.2558" x="1140.521" y="821.878">Address</text><line style="stroke:#181818;stroke-width:0.5;" x1="1135.08" x2="1199.2178" y1="830.9799" y2="830.9799"/><text fill="#000000" font-family="sans-serif" font-size="14" lengthAdjust="spacing" textLength="12.222" x="1140.08" y="849.9459">id</text><text fill="#000000" font-family="sans-serif" font-size="14" lengthAdjust="spacing" textLength="31.5839" x="1140.08" y="869.0138">label</text><text fill="#000000" font-family="sans-serif" font-size="14" lengthAdjust="spacing" textLength="38.3879" x="1140.08" y="888.0817">street</text><text fill="#000000" font-family="sans-serif" font-size="14" lengthAdjust="spacing" textLength="22.5259" x="1140.08" y="907.1496">city</text><text fill="#000000" font-family="sans-serif" font-size="14" lengthAdjust="spacing" textLength="32.5639" x="1140.08" y="926.2176">state</text><text fill="#000000" font-family="sans-serif" font-size="14" lengthAdjust="spacing" textLength="54.1378" x="1140.08" y="945.2855">zip code</text></g><!--class CommunicationChannel--><g id="elem_CommunicationChannel"><rect codeLine="68" fill="#F1F1F1" filter="url(#fa9orslsomx3u)" height="91.5479" id="CommunicationChannel" rx="2.5" ry="2.5" style="stroke:#181818;stroke-width:0.5;" width="256.635" x="1235.58" y="823.5679"/><text fill="#000000" font-family="sans-serif" font-size="12" font-style="italic" lengthAdjust="spacing" textLength="75.2285" x="1326.2833" y="841.396">&#171;value object&#187;</text><text fill="#000000" font-family="sans-serif" font-size="14" lengthAdjust="spacing" textLength="158.9414" x="1284.4268" y="859.878">CommunicationChannel</text><line style="stroke:#181818;stroke-width:0.5;" x1="1236.58" x2="1491.215" y1="868.9799" y2="868.9799"/><text fill="#000000" font-family="sans-serif" font-size="14" lengthAdjust="spacing" textLength="35.1259" x="1241.58" y="887.9459">value</text><text fill="#000000" font-family="sans-serif" font-size="14" lengthAdjust="spacing" textLength="244.635" x="1241.58" y="907.0138">type : MOBILE, PHONE, EMAIL or URL</text></g><!--class HourlyWage--><g id="elem_HourlyWage"><rect codeLine="73" fill="#F1F1F1" filter="url(#fa9orslsomx3u)" height="91.5479" id="HourlyWage" rx="2.5" ry="2.5" style="stroke:#181818;stroke-width:0.5;" width="132.4835" x="840.08" y="823.5679"/><text fill="#000000" font-family="sans-serif" font-size="12" font-style="italic" lengthAdjust="spacing" textLength="75.2285" x="868.7075" y="841.396">&#171;value object&#187;</text><text fill="#000000" font-family="sans-serif" font-size="14" lengthAdjust="spacing" textLength="81.4097" x="865.6169" y="859.878">HourlyWage</text><line style="stroke:#181818;stroke-width:0.5;" x1="841.08" x2="971.5635" y1="868.9799" y2="868.9799"/><text fill="#000000" font-family="sans-serif" font-size="14" lengthAdjust="spacing" textLength="120.4835" x="846.08" y="887.9459">value : BigDecimal</text><text fill="#000000" font-family="sans-serif" font-size="14" lengthAdjust="spacing" textLength="57.3438" x="846.08" y="907.0138">currency</text></g><!--class HourlyWageUpdated--><g id="elem_HourlyWageUpdated"><rect codeLine="78" fill="#F1F1F1" filter="url(#fa9orslsomx3u)" height="45.412" id="HourlyWageUpdated" rx="2.5" ry="2.5" style="stroke:#181818;stroke-width:0.5;" width="144.2775" x="1173.08" y="165.5679"/><text fill="#000000" font-family="sans-serif" font-size="12" font-style="italic" lengthAdjust="spacing" textLength="39.9603" x="1225.2386" y="183.396">&#171;event&#187;</text><text fill="#000000" font-family="sans-serif" font-size="14" lengthAdjust="spacing" textLength="138.2775" x="1176.08" y="201.878">HourlyWageUpdated</text></g><!--class Timesheet--><g id="elem_Timesheet"><rect codeLine="83" fill="#F1F1F1" filter="url(#fa9orslsomx3u)" height="328.3629" id="Timesheet" rx="2.5" ry="2.5" style="stroke:#181818;stroke-width:0.5;" width="318.3468" x="461.08" y="351.0679"/><text fill="#000000" font-family="sans-serif" font-size="12" font-style="italic" lengthAdjust="spacing" textLength="92.0526" x="574.2271" y="368.896">&#171;aggregate root&#187;</text><text fill="#000000" font-family="sans-serif" font-size="14" lengthAdjust="spacing" textLength="68.5857" x="585.9605" y="387.378">Timesheet</text><line style="stroke:#181818;stroke-width:0.5;" x1="462.08" x2="778.4268" y1="396.4799" y2="396.4799"/><text fill="#000000" font-family="sans-serif" font-size="14" lengthAdjust="spacing" textLength="63.5038" x="467.08" y="415.4459">start date</text><text fill="#000000" font-family="sans-serif" font-size="14" lengthAdjust="spacing" textLength="58.2118" x="467.08" y="434.5138">end date</text><line style="stroke:#181818;stroke-width:1.0;" x1="462.08" x2="778.4268" y1="442.6158" y2="442.6158"/><text fill="#000000" font-family="sans-serif" font-size="14" lengthAdjust="spacing" text-decoration="underline" textLength="306.3468" x="467.08" y="461.5817">of(FreelancerId, currentProjects, currentWage)</text><text fill="#000000" font-family="sans-serif" font-size="14" lengthAdjust="spacing" textLength="136.4715" x="467.08" y="480.6496">add(TimesheetEntry)</text><text fill="#000000" font-family="sans-serif" font-size="14" lengthAdjust="spacing" textLength="158.0734" x="467.08" y="499.7176">update(TimesheetEntry)</text><text fill="#000000" font-family="sans-serif" font-size="14" lengthAdjust="spacing" textLength="161.6434" x="467.08" y="518.7855">remove(TimesheetEntry)</text><text fill="#000000" font-family="sans-serif" font-size="14" lengthAdjust="spacing" textLength="54.1238" x="467.08" y="537.8534">submit()</text><text fill="#000000" font-family="sans-serif" font-size="14" lengthAdjust="spacing" textLength="51.2538" x="467.08" y="556.9213">accept()</text><text fill="#000000" font-family="sans-serif" font-size="14" lengthAdjust="spacing" textLength="44.3518" x="467.08" y="575.9892">billed()</text><text fill="#000000" font-family="sans-serif" font-size="14" lengthAdjust="spacing" textLength="95.5776" x="467.08" y="595.0571">return(reason)</text><text fill="#000000" font-family="sans-serif" font-size="14" lengthAdjust="spacing" textLength="90.7197" x="467.08" y="614.1251">reject(reason)</text><text fill="#000000" font-family="sans-serif" font-size="14" lengthAdjust="spacing" textLength="95.2136" x="467.08" y="633.193">cancel(reason)</text><text fill="#000000" font-family="sans-serif" font-size="14" lengthAdjust="spacing" textLength="122.0795" x="467.08" y="652.2609">totalWorkedTime()</text><text fill="#000000" font-family="sans-serif" font-size="14" lengthAdjust="spacing" textLength="88.7597" x="467.08" y="671.3288">grossWages()</text></g><!--class TimesheetId--><g id="elem_TimesheetId"><rect codeLine="101" fill="#F1F1F1" filter="url(#fa9orslsomx3u)" height="72.4799" id="TimesheetId" rx="2.5" ry="2.5" style="stroke:#181818;stroke-width:0.5;" width="87.9417" x="290.08" y="833.5679"/><text fill="#000000" font-family="sans-serif" font-size="12" font-style="italic" lengthAdjust="spacing" textLength="75.2285" x="296.4366" y="851.396">&#171;value object&#187;</text><text fill="#000000" font-family="sans-serif" font-size="14" lengthAdjust="spacing" textLength="81.9417" x="293.08" y="869.878">TimesheetId</text><line style="stroke:#181818;stroke-width:0.5;" x1="291.08" x2="377.0217" y1="878.9799" y2="878.9799"/><text fill="#000000" font-family="sans-serif" font-size="14" lengthAdjust="spacing" textLength="35.1259" x="296.08" y="897.9459">value</text></g><!--class TimesheetEntry--><g id="elem_TimesheetEntry"><rect codeLine="105" fill="#F1F1F1" filter="url(#fa9orslsomx3u)" height="129.6837" id="TimesheetEntry" rx="2.5" ry="2.5" style="stroke:#181818;stroke-width:0.5;" width="116.4536" x="413.08" y="804.5679"/><text fill="#000000" font-family="sans-serif" font-size="12" font-style="italic" lengthAdjust="spacing" textLength="41.0523" x="450.7807" y="822.396">&#171;entity&#187;</text><text fill="#000000" font-family="sans-serif" font-size="14" lengthAdjust="spacing" textLength="102.9976" x="419.808" y="840.878">TimesheetEntry</text><line style="stroke:#181818;stroke-width:0.5;" x1="414.08" x2="528.5336" y1="849.9799" y2="849.9799"/><text fill="#000000" font-family="sans-serif" font-size="14" lengthAdjust="spacing" textLength="12.222" x="419.08" y="868.9459">id</text><text fill="#000000" font-family="sans-serif" font-size="14" lengthAdjust="spacing" textLength="29.4139" x="419.08" y="888.0138">date</text><text fill="#000000" font-family="sans-serif" font-size="14" lengthAdjust="spacing" textLength="104.4536" x="419.08" y="907.0817">task description</text><text fill="#000000" font-family="sans-serif" font-size="14" lengthAdjust="spacing" textLength="82.5297" x="419.08" y="926.1496">worked time</text></g><!--class TimesheetStatus--><g id="elem_TimesheetStatus"><rect codeLine="112" fill="#F1F1F1" filter="url(#fa9orslsomx3u)" height="186.8874" id="TimesheetStatus" rx="2.5" ry="2.5" style="stroke:#181818;stroke-width:0.5;" width="115.5916" x="564.08" y="776.0679"/><text fill="#000000" font-family="sans-serif" font-size="12" font-style="italic" lengthAdjust="spacing" textLength="80.1965" x="581.7775" y="793.896">&#171;enumeration&#187;</text><text fill="#000000" font-family="sans-serif" font-size="14" lengthAdjust="spacing" textLength="109.5916" x="567.08" y="812.378">TimesheetStatus</text><line style="stroke:#181818;stroke-width:0.5;" x1="565.08" x2="678.6716" y1="821.4799" y2="821.4799"/><text fill="#000000" font-family="sans-serif" font-size="14" lengthAdjust="spacing" textLength="37.8279" x="570.08" y="840.4459">OPEN</text><text fill="#000000" font-family="sans-serif" font-size="14" lengthAdjust="spacing" textLength="78.0357" x="570.08" y="859.5138">SUBMITTED</text><text fill="#000000" font-family="sans-serif" font-size="14" lengthAdjust="spacing" textLength="68.6837" x="570.08" y="878.5817">ACCEPTED</text><text fill="#000000" font-family="sans-serif" font-size="14" lengthAdjust="spacing" textLength="46.5218" x="570.08" y="897.6496">BILLED</text><text fill="#000000" font-family="sans-serif" font-size="14" lengthAdjust="spacing" textLength="71.8617" x="570.08" y="916.7176">RETURNED</text><text fill="#000000" font-family="sans-serif" font-size="14" lengthAdjust="spacing" textLength="62.7337" x="570.08" y="935.7855">REJECTED</text><text fill="#000000" font-family="sans-serif" font-size="14" lengthAdjust="spacing" textLength="77.7417" x="570.08" y="954.8534">CANCELLED</text></g><!--class TimesheetRepository--><g id="elem_TimesheetRepository"><rect codeLine="122" fill="#F1F1F1" filter="url(#fa9orslsomx3u)" height="129.6837" id="TimesheetRepository" rx="2.5" ry="2.5" style="stroke:#181818;stroke-width:0.5;" width="259.239" x="703.58" y="123.0679"/><text fill="#000000" font-family="sans-serif" font-size="12" font-style="italic" lengthAdjust="spacing" textLength="65.3164" x="800.5413" y="140.896">&#171;repository&#187;</text><text fill="#000000" font-family="sans-serif" font-size="14" lengthAdjust="spacing" textLength="139.0335" x="763.6828" y="159.378">TimesheetRepository</text><line style="stroke:#181818;stroke-width:0.5;" x1="704.58" x2="961.819" y1="168.4799" y2="168.4799"/><text fill="#000000" font-family="sans-serif" font-size="14" lengthAdjust="spacing" textLength="103.8236" x="709.58" y="187.4459">save(timesheet)</text><text fill="#000000" font-family="sans-serif" font-size="14" lengthAdjust="spacing" textLength="146.7614" x="709.58" y="206.5138">findAllBy(freelancerId)</text><text fill="#000000" font-family="sans-serif" font-size="14" lengthAdjust="spacing" textLength="247.239" x="709.58" y="225.5817">findAllBy(freelancerIdAndTimeFrame)</text><text fill="#000000" font-family="sans-serif" font-size="14" lengthAdjust="spacing" textLength="125.9995" x="709.58" y="244.6496">findAllBy(projectId)</text></g><!--class Services--><g id="elem_Services"><rect codeLine="129" fill="#F1F1F1" filter="url(#fa9orslsomx3u)" height="167.8195" id="Services" rx="2.5" ry="2.5" style="stroke:#181818;stroke-width:0.5;" width="378.3226" x="290.08" y="104.0679"/><text fill="#000000" font-family="sans-serif" font-size="12" font-style="italic" lengthAdjust="spacing" textLength="47.5203" x="455.4811" y="121.896">&#171;service&#187;</text><text fill="#000000" font-family="sans-serif" font-size="14" lengthAdjust="spacing" textLength="53.4098" x="452.5364" y="140.378">Services</text><line style="stroke:#181818;stroke-width:0.5;" x1="291.08" x2="667.4026" y1="149.4799" y2="149.4799"/><text fill="#000000" font-family="sans-serif" font-size="14" lengthAdjust="spacing" textLength="143.1215" x="296.08" y="168.4459">projectCost(projectId)</text><text fill="#000000" font-family="sans-serif" font-size="14" lengthAdjust="spacing" textLength="172.3394" x="296.08" y="187.5138">projectDuration(projectId)</text><text fill="#000000" font-family="sans-serif" font-size="14" lengthAdjust="spacing" textLength="278.5849" x="296.08" y="206.5817">freelancerWages(freelancerId, timeFrame)</text><text fill="#000000" font-family="sans-serif" font-size="14" lengthAdjust="spacing" textLength="328.7887" x="296.08" y="225.6496">freelancerWagesByProject(freelancerId, projectId)</text><text fill="#000000" font-family="sans-serif" font-size="14" lengthAdjust="spacing" textLength="318.1347" x="296.08" y="244.7176">freelancerWorkedTime(freelancerId, timeFrame)</text><text fill="#000000" font-family="sans-serif" font-size="14" lengthAdjust="spacing" textLength="366.3226" x="296.08" y="263.7855">freelancerworkedTimeByProject(freelancerId, projectId)</text></g><rect fill="#F1F1F1" filter="url(#fa9orslsomx3u)" height="58.1358" rx="2.5" ry="2.5" style="stroke:#181818;stroke-width:0.5;" width="161.9315" x="93.08" y="159.0679"/><text fill="#000000" font-family="sans-serif" font-size="14" font-style="italic" lengthAdjust="spacing" textLength="119.9376" x="114.0769" y="176.0339">&#171;Bounded Context&#187;</text><text fill="#000000" font-family="sans-serif" font-size="14" font-weight="bold" lengthAdjust="spacing" textLength="141.9315" x="103.08" y="195.1018">Billing Management</text><!--link Freelancer to FreelancerId--><g id="link_Freelancer_FreelancerId"><path codeLine="143" d="M975.758,623.6857 C954.728,669.5457 928.88,710.9479 887.08,746.0679 C864,765.4679 846.65,749.7679 823.08,768.5679 C801.75,785.5879 788.2502,806.5348 777.6302,827.9048 " fill="none" id="Freelancer-FreelancerId" style="stroke:#181818;stroke-width:1.0;"/><polygon fill="#181818" points="980.76,612.7779,974.6231,616.5645,975.758,623.6857,981.8949,619.8991,980.76,612.7779" style="stroke:#181818;stroke-width:1.0;"/><polygon fill="#181818" points="774.96,833.2779,782.5474,826.9984,777.1852,828.8003,775.3832,823.4382,774.96,833.2779" style="stroke:#181818;stroke-width:1.0;"/><text fill="#000000" font-family="sans-serif" font-size="13" lengthAdjust="spacing" textLength="11.349" x="922.08" y="732.9649">id</text></g><!--link Freelancer to PersonName--><g id="link_Freelancer_PersonName"><path codeLine="144" d="M1027.4923,624.7924 C1034.2823,689.5024 1041.0939,754.3907 1046.7139,807.9507 " fill="none" id="Freelancer-PersonName" style="stroke:#181818;stroke-width:1.0;"/><polygon fill="#181818" points="1026.24,612.8579,1022.888,619.2426,1027.4923,624.7924,1030.8443,618.4077,1026.24,612.8579" style="stroke:#181818;stroke-width:1.0;"/><polygon fill="#181818" points="1047.34,813.9179,1050.379,804.5496,1046.8182,808.9452,1042.4226,805.3845,1047.34,813.9179" style="stroke:#181818;stroke-width:1.0;"/><text fill="#000000" font-family="sans-serif" font-size="13" lengthAdjust="spacing" textLength="34.814" x="1040.08" y="732.9649">name</text></g><!--link Freelancer to Address--><g id="link_Freelancer_Address"><path codeLine="145" d="M1062.2658,623.8882 C1086.3658,680.1382 1109.2274,733.5027 1131.7174,786.0027 " fill="none" id="Freelancer-Address" style="stroke:#181818;stroke-width:1.0;"/><polygon fill="#181818" points="1057.54,612.8579,1056.2262,619.9483,1062.2658,623.8882,1063.5797,616.7978,1057.54,612.8579" style="stroke:#181818;stroke-width:1.0;"/><polygon fill="#181818" points="1134.08,791.5179,1134.2129,781.67,1132.1111,786.9219,1126.8592,784.8201,1134.08,791.5179" style="stroke:#181818;stroke-width:1.0;"/><text fill="#000000" font-family="sans-serif" font-size="13" lengthAdjust="spacing" textLength="21.567" x="1134.295" y="723.9649">1..*</text><text fill="#000000" font-family="sans-serif" font-size="13" lengthAdjust="spacing" textLength="61.997" x="1114.08" y="741.6709">addresses</text></g><!--link Freelancer to CommunicationChannel--><g id="link_Freelancer_CommunicationChannel"><path codeLine="146" d="M1120.061,621.3971 C1187.871,690.0771 1263.1449,766.3179 1315.3149,819.1679 " fill="none" id="Freelancer-CommunicationChannel" style="stroke:#181818;stroke-width:1.0;"/><polygon fill="#181818" points="1111.63,612.8579,1112.9991,619.9379,1120.061,621.3971,1118.6919,614.3172,1111.63,612.8579" style="stroke:#181818;stroke-width:1.0;"/><polygon fill="#181818" points="1319.53,823.4379,1316.0541,814.2228,1316.0174,819.8796,1310.3607,819.8429,1319.53,823.4379" style="stroke:#181818;stroke-width:1.0;"/><text fill="#000000" font-family="sans-serif" font-size="13" lengthAdjust="spacing" textLength="21.567" x="1307.9186" y="723.9649">1..*</text><text fill="#000000" font-family="sans-serif" font-size="13" lengthAdjust="spacing" textLength="153.2442" x="1242.08" y="741.6709">communication channels</text></g><!--link Freelancer to ProjectId--><g id="link_Freelancer_ProjectId"><path codeLine="147" d="M901.7886,619.9185 C867.7186,645.9785 837.69,663.8479 797.08,679.0679 C664.26,728.8479 252.75,657.0579 165.08,768.5679 C105.06,844.9079 98.77,916.1279 165.08,987.0679 C213.74,1039.1179 1320.0022,1071.7946 1543.2622,1077.8746 " fill="none" id="Freelancer-ProjectId" style="stroke:#181818;stroke-width:1.0;"/><polygon fill="none" points="911.32,612.6279,904.1241,613.096,901.7886,619.9185,908.9845,619.4503,911.32,612.6279" style="stroke:#181818;stroke-width:1.0;"/><polygon fill="#181818" points="1549.26,1078.0379,1540.3722,1073.7944,1544.2619,1077.9018,1540.1544,1081.7914,1549.26,1078.0379" style="stroke:#181818;stroke-width:1.0;"/><text fill="#000000" font-family="sans-serif" font-size="13" lengthAdjust="spacing" textLength="21.567" x="208.7525" y="865.9649">0..*</text><text fill="#000000" font-family="sans-serif" font-size="13" lengthAdjust="spacing" textLength="106.9121" x="166.08" y="883.6709">assigned projects</text></g><!--link Freelancer to HourlyWage--><g id="link_Freelancer_HourlyWage"><path codeLine="148" d="M982.3041,624.3127 C960.8641,692.9927 938.4481,764.8606 921.9481,817.7106 " fill="none" id="Freelancer-HourlyWage" style="stroke:#181818;stroke-width:1.0;"/><polygon fill="#181818" points="985.88,612.8579,980.2738,617.3934,982.3041,624.3127,987.9103,619.7773,985.88,612.8579" style="stroke:#181818;stroke-width:1.0;"/><polygon fill="#181818" points="920.16,823.4379,926.6604,816.0389,921.6501,818.6651,919.0239,813.6548,920.16,823.4379" style="stroke:#181818;stroke-width:1.0;"/><text fill="#000000" font-family="sans-serif" font-size="13" lengthAdjust="spacing" textLength="32.838" x="955.08" y="732.9649">wage</text></g><!--link Timesheet to TimesheetId--><g id="link_Timesheet_TimesheetId"><path codeLine="150" d="M460.1909,688.5008 C435.2809,717.5008 418.23,738.8479 396.08,768.5679 C380.7,789.2079 368.4811,808.5857 356.9511,828.1957 " fill="none" id="Timesheet-TimesheetId" style="stroke:#181818;stroke-width:1.0;"/><polygon fill="#181818" points="468.01,679.3979,461.0662,681.343,460.1909,688.5008,467.1348,686.5557,468.01,679.3979" style="stroke:#181818;stroke-width:1.0;"/><polygon fill="#181818" points="353.91,833.3679,361.9198,827.637,356.4442,829.0577,355.0235,823.5822,353.91,833.3679" style="stroke:#181818;stroke-width:1.0;"/><text fill="#000000" font-family="sans-serif" font-size="13" lengthAdjust="spacing" textLength="11.349" x="442.08" y="732.9649">id</text></g><!--link Timesheet to TimesheetStatus--><g id="link_Timesheet_TimesheetStatus"><path codeLine="151" d="M616.562,691.0978 C616.472,713.5978 616.64,724.4079 617.08,746.0679 C617.28,755.7479 617.3577,759.8613 617.6977,769.9413 " fill="none" id="Timesheet-TimesheetStatus" style="stroke:#181818;stroke-width:1.0;"/><polygon fill="#181818" points="616.61,679.0979,612.586,685.0819,616.562,691.0978,620.586,685.1139,616.61,679.0979" style="stroke:#181818;stroke-width:1.0;"/><polygon fill="#181818" points="617.9,775.9379,621.5943,766.8082,617.7314,770.9408,613.5989,767.0779,617.9,775.9379" style="stroke:#181818;stroke-width:1.0;"/><text fill="#000000" font-family="sans-serif" font-size="13" lengthAdjust="spacing" textLength="37.167" x="618.08" y="732.9649">status</text></g><!--link Timesheet to FreelancerId--><g id="link_Timesheet_FreelancerId"><path codeLine="152" d="M674.2976,690.3889 C682.3476,713.1089 687.03,724.6679 696.08,746.0679 C708.89,776.3379 723.3984,804.0573 736.8284,828.1473 " fill="none" id="Timesheet-FreelancerId" style="stroke:#181818;stroke-width:1.0;"/><polygon fill="#181818" points="670.29,679.0779,668.5235,686.0693,674.2976,690.3889,676.0642,683.3975,670.29,679.0779" style="stroke:#181818;stroke-width:1.0;"/><polygon fill="#181818" points="739.75,833.3879,738.8613,823.5792,737.3153,829.0207,731.8738,827.4747,739.75,833.3879" style="stroke:#181818;stroke-width:1.0;"/><text fill="#000000" font-family="sans-serif" font-size="13" lengthAdjust="spacing" textLength="62.127" x="697.08" y="732.9649">freelancer</text></g><!--link Timesheet to TimesheetEntry--><g id="link_Timesheet_TimesheetEntry"><path codeLine="153" d="M546.4684,690.2112 C527.7284,734.5512 515.5268,763.4317 500.6168,798.6917 " fill="none" id="Timesheet-TimesheetEntry" style="stroke:#181818;stroke-width:1.0;"/><polygon fill="none" points="551.14,679.1579,545.1198,683.1274,546.4684,690.2112,552.4886,686.2418,551.14,679.1579" style="stroke:#181818;stroke-width:1.0;"/><polygon fill="#181818" points="498.28,804.2179,505.4694,797.4864,500.2273,799.6127,498.1011,794.3707,498.28,804.2179" style="stroke:#181818;stroke-width:1.0;"/><text fill="#000000" font-family="sans-serif" font-size="13" lengthAdjust="spacing" textLength="21.567" x="547.467" y="723.9649">0..*</text><text fill="#000000" font-family="sans-serif" font-size="13" lengthAdjust="spacing" textLength="42.341" x="537.08" y="741.6709">entries</text></g><!--link Timesheet to ProjectId--><g id="link_Timesheet_ProjectId"><path codeLine="154" d="M449.0801,542.2855 C317.2201,571.2855 150.11,632.0979 66.08,768.5679 C15.17,851.2579 6,910.7779 66.08,987.0679 C113.43,1047.1779 1311.1712,1073.6396 1543.4812,1078.2196 " fill="none" id="Timesheet-ProjectId" style="stroke:#181818;stroke-width:1.0;"/><polygon fill="#181818" points="460.8,539.7079,454.0809,537.0901,449.0801,542.2855,455.7992,544.9033,460.8,539.7079" style="stroke:#181818;stroke-width:1.0;"/><polygon fill="#181818" points="1549.48,1078.3379,1540.5606,1074.1613,1544.481,1078.2394,1540.4029,1082.1597,1549.48,1078.3379" style="stroke:#181818;stroke-width:1.0;"/><text fill="#000000" font-family="sans-serif" font-size="13" lengthAdjust="spacing" textLength="42.848" x="67.08" y="874.9649">project</text></g><!--link Timesheet to HourlyWage--><g id="link_Timesheet_HourlyWage"><path codeLine="155" d="M748.6921,688.7697 C770.7221,717.2497 783.37,732.5679 796.08,746.0679 C806.56,757.1979 811.36,757.6879 822.08,768.5679 C838.95,785.6879 852.4457,801.1382 866.9257,818.7982 " fill="none" id="Timesheet-HourlyWage" style="stroke:#181818;stroke-width:1.0;"/><polygon fill="#181818" points="741.35,679.2779,741.8571,686.4712,748.6921,688.7697,748.185,681.5764,741.35,679.2779" style="stroke:#181818;stroke-width:1.0;"/><polygon fill="#181818" points="870.73,823.4379,868.1167,813.9421,867.5598,819.5714,861.9304,819.0145,870.73,823.4379" style="stroke:#181818;stroke-width:1.0;"/><text fill="#000000" font-family="sans-serif" font-size="13" lengthAdjust="spacing" textLength="81.2891" x="797.08" y="732.9649">current wage</text></g><!--link TimesheetEntry to ProjectId--><g id="link_TimesheetEntry_ProjectId"><path codeLine="156" d="M504.9462,945.0163 C516.8562,965.0763 526.68,974.8279 547.08,987.0679 C634.54,1039.5479 1365.6044,1070.5878 1543.5444,1077.4178 " fill="none" id="TimesheetEntry-ProjectId" style="stroke:#181818;stroke-width:1.0;"/><polygon fill="#181818" points="498.82,934.6979,498.4436,941.8992,504.9462,945.0163,505.3226,937.815,498.82,934.6979" style="stroke:#181818;stroke-width:1.0;"/><polygon fill="#181818" points="1549.54,1077.6479,1540.7,1073.3057,1544.5437,1077.4561,1540.3932,1081.2998,1549.54,1077.6479" style="stroke:#181818;stroke-width:1.0;"/><text fill="#000000" font-family="sans-serif" font-size="13" lengthAdjust="spacing" textLength="42.848" x="653.08" y="1009.9649">project</text></g><!--link TimesheetRepository to Timesheet--><g id="link_TimesheetRepository_Timesheet"><path codeLine="157" d="M791,253.2779 C772.45,281.5779 753.0091,311.2397 730.2591,345.9497 " fill="none" id="TimesheetRepository-to-Timesheet" style="stroke:#181818;stroke-width:1.0;stroke-dasharray:7.0,7.0;"/><polygon fill="#181818" points="726.97,350.9679,735.249,345.6334,729.7109,346.7861,728.5581,341.2479,726.97,350.9679" style="stroke:#181818;stroke-width:1.0;"/><text fill="#000000" font-family="sans-serif" font-size="13" lengthAdjust="spacing" textLength="50.947" x="759.08" y="316.9649">&#171;stores&#187;</text></g><!--link Project to ProjectId--><g id="link_Project_ProjectId"><path codeLine="159" d="M1594.2617,917.9292 C1592.7917,956.3892 1591.1296,999.4923 1589.6596,1037.8823 " fill="none" id="Project-ProjectId" style="stroke:#181818;stroke-width:1.0;"/><polygon fill="#181818" points="1594.72,905.9379,1590.4938,911.7808,1594.2617,917.9292,1598.4879,912.0863,1594.72,905.9379" style="stroke:#181818;stroke-width:1.0;"/><polygon fill="#181818" points="1589.43,1043.8779,1593.7714,1035.0376,1589.6213,1038.8816,1585.7773,1034.7315,1589.43,1043.8779" style="stroke:#181818;stroke-width:1.0;"/><text fill="#000000" font-family="sans-serif" font-size="13" lengthAdjust="spacing" textLength="11.349" x="1592.08" y="1009.9649">id</text></g><!--link Project to CustomerId--><g id="link_Project_CustomerId"><path codeLine="160" d="M1630.2431,915.2034 C1653.2831,944.8534 1680.49,978.5379 1713.08,1014.0679 C1722.28,1024.0979 1728.3563,1030.3673 1738.1463,1039.8773 " fill="none" id="Project-CustomerId" style="stroke:#181818;stroke-width:1.0;"/><polygon fill="#181818" points="1622.88,905.7279,1623.403,912.92,1630.2431,915.2034,1629.72,908.0113,1622.88,905.7279" style="stroke:#181818;stroke-width:1.0;"/><polygon fill="#181818" points="1742.45,1044.0579,1738.7815,1034.9178,1738.8636,1040.574,1733.2073,1040.6561,1742.45,1044.0579" style="stroke:#181818;stroke-width:1.0;"/><text fill="#000000" font-family="sans-serif" font-size="13" lengthAdjust="spacing" textLength="57.9151" x="1714.08" y="1009.9649">customer</text></g><!--link Customer to CustomerId--><g id="link_Customer_CustomerId"><path codeLine="162" d="M1782.3984,917.9367 C1781.8484,956.3967 1781.226,999.4885 1780.676,1037.8785 " fill="none" id="Customer-CustomerId" style="stroke:#181818;stroke-width:1.0;"/><polygon fill="#181818" points="1782.57,905.9379,1778.4846,911.8801,1782.3984,917.9367,1786.4838,911.9945,1782.57,905.9379" style="stroke:#181818;stroke-width:1.0;"/><polygon fill="#181818" points="1780.59,1043.8779,1784.7185,1034.9361,1780.6616,1038.8784,1776.7193,1034.8215,1780.59,1043.8779" style="stroke:#181818;stroke-width:1.0;"/><text fill="#000000" font-family="sans-serif" font-size="13" lengthAdjust="spacing" textLength="11.349" x="1782.08" y="1009.9649">id</text></g><text fill="#000000" font-family="sans-serif" font-size="14" lengthAdjust="spacing" textLength="553.348" x="672.866" y="1159.0339">Based on https://www.mirkosertic.de/blog/2013/04/domain-driven-design-example/</text><!--SRC=[bLPBS-8u4BxxLwZcH6O7oEpkYKfH1OIfoHOXgOJKNFOYf0veiIMN98VnJEM_RrkMvGUG45yizKjVj_eXAsmCPAfuJXP0ZP0RSgqIAcIq5Hm89AdDIGB96hGfIKne5aF4Q6g5acHA3N22YwsrgHaDX_lzVf08lLC6j1Lim66uZjLc-EVbrx-6btyFkJFVvrgy0Fx0Y8timq-Qf34CeyZiX4offWdv7H5YjfIhVO7AwWoGa5Asenjuj3d2ri0ibHj4ynf5daC-tMlr7pB8BPMuJq3QJ-JgQgeooH7fJ4aBF-ruZFRH7ekfCQHIkRgYcus63RLeNAbIYk0dQLAS_dgWSiDHwON66H2rBWX1nH5BdIQwMMQiIa1_15xG-G2-IkSSW4rytpH0J2Kx3s4uhg5s4cIVIC5sIuHgods_x_v_a4Iz05-fdeJzX7CDnbnu3kMyLsarQKmbIOOCMYJXR4kbXBZYQoZi7QXvybkQMSeHTM-hCXtdFz3vYtPGQo_FklUGArWyIXPOJYaz2ssiMw52kKW4vt77a0yEMi5B4JOF-e9xvJN4RcKiGYqDCHJqD7JEhNw9b335kobp93BlUKc8pLCW8t9xDxrPpB-G- -ztI_pDRoSt2w8qUNfOj4_v7eBxfcqqEHMRQs0YeQLBBDCQ9CjFcNjobrVS2s1d2INqsiZIbS3Sss9WJYSf1abRmgj8WUJrfahOtqKa1NibwhdNJ8al7gFrpS44GfLBn2LlW36NLkSbtQVUCPPFt6CiawqJONlUD6EGLfkrY6FWlSg2pRJiQUpmIbQa0c6Bn0etuXR9AalZ7qhli3pnU6zkevKnXKkcrocGWF53zT7sx6HsXtkmrEm8JWwcXHj2ZhXtA8aLTIS4cIMryKUyjAoidGmReyloSCJT_Npf5ezFqzkRrMf-xNQJsMn-NsqmmHT- -J1VFJqim-QV-QmIcasMixcNE-RY0wJA2AkSdpfiwloZUDMsahxmtK7oIHnFyzvp8zlUuasakwzlElI_MYwj9bVdxXv1lmW6HOHCkGoWlCfC6TjM3wphh0nebrs3AlFbkLKkjeEnBJpDVHrrj4uVKIVgcUViWyPPXtLc-HHhh7YRl3yeKQin8J_t- -FsB1aLETwLQ8oDKJdXknBLF1YHhuF1vtybBVSuNxkIHtjxfTOQYOILt9ODvV249y-8N9RdcUBrXhxwA1sUs-Zs8xB7NnJLJTX9D5k62yCflg_VaPjZcUdATU9Pts93KBKCbjscyWLlJmiuCDjqsdlP5Mdvw1j-wMldgFSDDhh3OD20Yh9ObKW7Cnv7KVLUFJ28uMln6g_00bgvYQBme3mKGWl_0m00]--></g></svg>